<?xml version="1.0" encoding="UTF-8"?>
<!DOCTYPE svg PUBLIC "-//W3C//DTD SVG 1.1//EN" "http://www.w3.org/Graphics/SVG/1.1/DTD/svg11.dtd">
<!-- Creator: CorelDRAW -->
<svg xmlns="http://www.w3.org/2000/svg" xml:space="preserve" width="40.2779mm" height="10.4712mm" version="1.1" shape-rendering="geometricPrecision" text-rendering="geometricPrecision" image-rendering="optimizeQuality" fill-rule="evenodd" clip-rule="evenodd"
viewBox="0 0 1204.34 313.1"
 xmlns:xlink="http://www.w3.org/1999/xlink"
 xmlns:xodm="http://www.corel.com/coreldraw/odm/2003">
 <g id="Слой_x0020_1">
  <metadata id="CorelCorpID_0Corel-Layer"/>
  <g id="_2400114531136">
   <path fill="#FEFEFE" fill-rule="nonzero" d="M153.1 309.05l-58.65 0 0 -211 -17.07 0 0 149.32c0,19.61 -2.13,33.72 -6.44,42.28 -4.31,8.62 -10.87,13.96 -19.68,16.13 -8.78,2.16 -22.8,3.27 -42.05,3.27l-9.21 0 0 -45.4c7.16,0 12.05,-1.06 14.75,-3.11 2.66,-2.06 4.04,-9.11 4.04,-21.17l0 -194.05 134.31 0 0 263.73zm160.73 0l-48.92 0 0 -116.75 -39.02 116.75 -51.12 0 0 -216.05 48.88 0 0 115.75 38.35 -115.75 51.82 0 0 216.05zm75.39 -216.05l0 84.02c11.76,0 17.64,-7.33 17.64,-21.95l0 -36.67c0,-14.73 2.09,-23.23 6.26,-25.4l54.01 0c-4.12,7.06 -6.21,17.5 -6.21,31.29l0 30.11c0,10.51 -3.7,19.23 -11,26.17 -2.65,2.62 -8.35,6.34 -16.93,11.12 -5.54,3.11 -11.8,4.84 -18.76,5.05 3.27,0.61 9.34,2.4 18.21,5.34 19.15,7.17 28.72,19.73 28.72,37.62l0 37.95c0,13.89 2.09,24.34 6.26,31.39l-54.01 0c-4.17,-6.61 -6.26,-15.05 -6.26,-25.4l0 -45.56c0,-14.67 -5.97,-22.02 -17.92,-22.02l0 92.99 -55.42 -0.01 0 -216.05 55.42 0zm216.96 75.91l0 52.9c0,19.4 -0.86,33.67 -2.51,42.73 -1.67,9.06 -5.22,17.51 -10.72,25.4 -5.45,7.84 -12.47,13.67 -21,17.39 -8.59,3.78 -18.45,5.61 -29.54,5.61 -12.42,0 -22.89,-1.56 -31.53,-4.78 -8.62,-3.23 -15.32,-8.06 -20.05,-14.5 -4.79,-6.44 -8.21,-14.28 -10.24,-23.45 -2.04,-9.17 -3.03,-22.9 -3.03,-41.23l0 -55.41c0,-20.05 1.84,-35.73 5.54,-47 3.7,-11.29 10.39,-20.34 20.01,-27.17 9.63,-6.84 21.95,-10.29 36.94,-10.29 12.61,0 23.42,2.23 32.43,6.61 9.06,4.39 16.02,10.12 20.91,17.18 4.94,7.06 8.25,14.33 10.09,21.78 1.8,7.5 2.71,18.89 2.71,34.23zm-56.14 -16.27c0,-11.12 -0.53,-18.06 -1.52,-20.96 -1.04,-2.88 -3.23,-4.32 -6.54,-4.32 -3.32,0 -5.55,1.44 -6.63,4.32 -1.14,2.9 -1.71,9.84 -1.71,20.96l0 97.46c0,10.22 0.57,16.89 1.71,19.95 1.09,3.11 3.27,4.67 6.49,4.67 3.38,0 5.55,-1.44 6.59,-4.23 1.09,-2.84 1.61,-8.95 1.61,-18.23l0 -99.63z"/>
   <path fill="#FEFEFE" fill-rule="nonzero" d="M805.17 40.06l0 269.08 -48.94 0 0 -181.65 -19.56 181.65 -34.73 0 -20.6 -177.51 0 177.51 -48.92 0 0 -269.08 72.48 0c2.13,16.17 4.36,35.23 6.76,57.18l7.72 68.48 12.75 -125.66 73.03 0zm68.89 133.94l-50.42 0 0 -14.8c0,-17.03 1.59,-30.19 4.72,-39.43 3.18,-9.25 9.49,-17.48 18.98,-24.57 9.48,-7.1 21.78,-10.61 36.95,-10.61 18.19,0 31.86,4.03 41.07,12.04 9.25,8.05 14.79,17.92 16.65,29.61 1.86,11.69 2.77,35.74 2.77,72.21l0 110.68 -52.24 0 0 -19.63c-3.27,7.89 -7.53,13.79 -12.71,17.7 -5.18,3.98 -11.35,5.9 -18.57,5.9 -9.4,0 -18.02,-3.28 -25.87,-9.86 -7.81,-6.58 -11.75,-21.04 -11.75,-43.29l0 -18.15c0,-16.51 2.09,-27.74 6.26,-33.69 4.18,-6.02 14.47,-12.99 31,-20.94 17.61,-8.68 27.05,-14.47 28.32,-17.48 1.23,-3.01 1.86,-9.07 1.86,-18.26 0,-11.52 -0.73,-19.06 -2.09,-22.52 -1.36,-3.52 -3.63,-5.28 -6.86,-5.28 -3.63,0 -5.9,1.48 -6.76,4.43 -0.91,2.95 -1.32,10.55 -1.32,22.86l0 23.09zm17.03 30.24c-8.62,7.89 -13.62,14.46 -14.98,19.8 -1.36,5.34 -2.05,12.99 -2.05,22.92 0,11.39 0.59,18.78 1.77,22.12 1.18,3.35 3.59,4.99 7.13,4.99 3.35,0 5.54,-1.3 6.58,-3.91 1,-2.61 1.54,-9.47 1.54,-20.54l0 -45.38zm190.9 -32.39l-50.66 0 0 -25.42c0,-8.85 -0.58,-14.85 -1.72,-18.04 -1.18,-3.17 -3.27,-4.77 -6.39,-4.77 -3.09,0 -5.18,1.42 -6.22,4.2 -1.09,2.78 -1.64,8.97 -1.64,18.61l0 104.05c0,7.83 0.82,13.73 2.4,17.7 1.59,3.91 3.96,5.9 7.04,5.9 3.63,0 6.13,-2.04 7.39,-6.18 1.28,-4.08 1.91,-11.86 1.91,-23.26l0 -26.27 47.88 0c-0.08,17.65 -0.59,30.85 -1.54,39.65 -0.91,8.8 -3.86,17.88 -8.89,27.12 -4.99,9.25 -11.53,16.22 -19.61,20.94 -8.08,4.7 -18.02,7.02 -29.9,7.02 -15.17,0 -27.19,-3.23 -36.04,-9.69 -8.85,-6.46 -15.16,-15.55 -18.84,-27.29 -3.67,-11.69 -5.48,-28.25 -5.48,-49.76l0 -62.62c0,-18.77 1.5,-32.91 4.49,-42.44 3.04,-9.54 9.44,-17.99 19.28,-25.48 9.85,-7.49 21.84,-11.23 35.91,-11.23 14.02,0 25.96,3.69 35.9,11.12 9.94,7.44 16.53,16.8 19.84,28.09 3.27,11.34 4.89,27.34 4.9,48.05zm122.35 -83.29l0 46.24 -30.72 0 0 174.33 -53.61 0 0 -174.33 -30.82 0 0 -46.24 115.15 0z"/>
   <path fill="#FEFEFE" fill-rule="nonzero" d="M845.82 54.01l0 -53.57 11.21 0 0 44.46 27.87 0 0 9.11 -39.07 0zm39.07 -39.12l11.32 0 9.61 27.77 9.39 -27.77 11.03 0 -14.2 37.65 -2.54 6.81c-0.94,2.27 -1.82,4.02 -2.66,5.23 -0.86,1.21 -1.83,2.18 -2.93,2.93 -1.09,0.73 -2.44,1.34 -4.04,1.74 -1.61,0.41 -3.42,0.63 -5.45,0.63 -2.04,0 -4.04,-0.22 -6.03,-0.63l-0.94 -8.11c1.67,0.32 3.16,0.48 4.51,0.48 2.47,0 4.31,-0.71 5.5,-2.11 1.17,-1.41 2.1,-3.21 2.73,-5.39l-15.31 -39.23zm83.24 11.57l-10.5 1.84c-0.35,-2.03 -1.15,-3.57 -2.4,-4.6 -1.26,-1.03 -2.86,-1.55 -4.87,-1.55 -2.66,0 -4.77,0.9 -6.34,2.67 -1.58,1.79 -2.37,4.77 -2.37,8.94 0,4.64 0.81,7.91 2.41,9.83 1.61,1.9 3.74,2.86 6.45,2.86 2.03,0 3.66,-0.55 4.96,-1.68 1.28,-1.12 2.19,-3.03 2.72,-5.74l10.46 1.71c-1.09,4.68 -3.18,8.2 -6.26,10.59 -3.07,2.37 -7.21,3.56 -12.38,3.56 -5.88,0 -10.59,-1.8 -14.07,-5.4 -3.51,-3.61 -5.26,-8.62 -5.26,-15.01 0,-6.45 1.77,-11.48 5.27,-15.07 3.52,-3.6 8.26,-5.41 14.25,-5.41 4.89,0 8.79,1.04 11.68,3.08 2.88,2.06 4.96,5.18 6.23,9.38zm5.59 7.43c0,-3.43 0.87,-6.76 2.61,-9.99 1.75,-3.2 4.21,-5.67 7.42,-7.35 3.19,-1.7 6.76,-2.56 10.69,-2.56 6.08,0 11.08,1.93 14.96,5.78 3.9,3.84 5.84,8.7 5.84,14.57 0,5.9 -1.97,10.81 -5.89,14.7 -3.92,3.91 -8.87,5.83 -14.82,5.83 -3.7,0 -7.21,-0.8 -10.55,-2.41 -3.35,-1.63 -5.9,-4.01 -7.65,-7.13 -1.73,-3.13 -2.61,-6.94 -2.61,-11.45zm10.91 0.55c0,3.89 0.94,6.86 2.85,8.92 1.87,2.07 4.23,3.1 7.01,3.1 2.77,0 5.1,-1.03 6.97,-3.1 1.88,-2.05 2.83,-5.05 2.83,-8.98 0,-3.83 -0.95,-6.78 -2.83,-8.84 -1.87,-2.07 -4.2,-3.09 -6.97,-3.09 -2.78,0 -5.13,1.03 -7.01,3.09 -1.91,2.06 -2.85,5.04 -2.85,8.91zm38.86 19.57l0 -54.01 16.77 0 10.08 36.84 9.96 -36.84 16.81 0 0 54.01 -10.41 0 0 -42.51 -11.02 42.51 -10.8 0 -10.99 -42.51 0 42.51 -10.39 0zm91.14 0l0 -5.86c-1.47,2.08 -3.41,3.74 -5.78,4.94 -2.39,1.19 -4.9,1.8 -7.56,1.8 -2.7,0 -5.11,-0.58 -7.26,-1.72 -2.15,-1.15 -3.7,-2.77 -4.66,-4.86 -0.97,-2.08 -1.44,-4.98 -1.44,-8.67l0 -24.74 10.64 0 0 17.96c0,5.51 0.19,8.88 0.59,10.13 0.39,1.23 1.11,2.21 2.13,2.94 1.03,0.72 2.35,1.08 3.94,1.08 1.83,0 3.44,-0.47 4.88,-1.45 1.44,-0.98 2.42,-2.17 2.94,-3.62 0.54,-1.44 0.81,-4.96 0.81,-10.55l0 -16.5 10.63 0 0 39.12 -9.87 0zm17.15 -11.17l10.68 -1.58c0.45,2.01 1.37,3.54 2.76,4.59 1.38,1.04 3.31,1.57 5.83,1.57 2.75,0 4.82,-0.49 6.21,-1.47 0.94,-0.68 1.4,-1.61 1.4,-2.77 0,-0.78 -0.26,-1.44 -0.76,-1.95 -0.54,-0.49 -1.72,-0.95 -3.56,-1.36 -8.58,-1.84 -14.03,-3.52 -16.32,-5.04 -3.19,-2.11 -4.77,-5.05 -4.77,-8.81 0,-3.39 1.36,-6.23 4.11,-8.55 2.76,-2.31 7.03,-3.47 12.8,-3.47 5.51,0 9.61,0.89 12.29,2.62 2.67,1.75 4.51,4.32 5.51,7.75l-10.02 1.79c-0.43,-1.51 -1.25,-2.69 -2.45,-3.48 -1.21,-0.83 -2.91,-1.22 -5.14,-1.22 -2.8,0 -4.8,0.37 -6.01,1.14 -0.81,0.54 -1.21,1.25 -1.21,2.1 0,0.74 0.35,1.36 1.05,1.87 0.97,0.68 4.28,1.66 9.95,2.92 5.66,1.25 9.61,2.77 11.86,4.6 2.22,1.85 3.34,4.41 3.34,7.7 0,3.59 -1.53,6.67 -4.63,9.25 -3.09,2.57 -7.62,3.85 -13.66,3.85 -5.49,0 -9.82,-1.08 -13.03,-3.24 -3.19,-2.14 -5.27,-5.09 -6.25,-8.8zm65.32 -27.95l0 8.25 -7.27 0 0 15.77c0,3.19 0.07,5.05 0.21,5.58 0.14,0.53 0.45,0.96 0.95,1.31 0.49,0.33 1.09,0.51 1.8,0.51 0.99,0 2.42,-0.35 4.29,-0.99l0.9 8.02c-2.48,1.03 -5.28,1.54 -8.42,1.54 -1.92,0 -3.65,-0.31 -5.18,-0.92 -1.54,-0.63 -2.66,-1.45 -3.38,-2.44 -0.73,-0.99 -1.22,-2.34 -1.52,-4.04 -0.22,-1.2 -0.33,-3.64 -0.33,-7.3l0 -17.04 -4.89 0 0 -8.25 4.89 0 0 -7.78 10.67 -6.04 0 13.82 7.27 0z"/>
  </g>
 </g>
</svg>
